<?xml version="1.0" encoding="UTF-8" standalone="no"?>
<!DOCTYPE svg PUBLIC "-//W3C//DTD SVG 1.1//EN"
 "http://www.w3.org/Graphics/SVG/1.1/DTD/svg11.dtd">
<!-- Generated by graphviz version 2.40.1 (20161225.0304)
 -->
<!-- Title: prisma Pages: 1 -->
<svg width="562pt" height="404pt"
 viewBox="0.00 0.00 562.06 404.00" xmlns="http://www.w3.org/2000/svg" xmlns:xlink="http://www.w3.org/1999/xlink">
<g id="graph0" class="graph" transform="scale(1 1) rotate(0) translate(4 400)">
<title>prisma</title>
<polygon fill="#ffffff" stroke="transparent" points="-4,4 -4,-400 558.056,-400 558.056,4 -4,4"/>
<!-- A -->
<g id="node1" class="node">
<title>A</title>
<polygon fill="#ffffff" stroke="#4d4d4d" stroke-width="1.1" points="222.5952,-396 .1348,-396 .1348,-360 222.5952,-360 222.5952,-396"/>
<text text-anchor="middle" x="111.365" y="-381" font-family="Helvetica,sans-Serif" font-size="10.00" fill="#000000">Records identified through database searching</text>
<text text-anchor="middle" x="111.365" y="-369" font-family="Helvetica,sans-Serif" font-size="10.00" fill="#000000">(n = 1245)</text>
</g>
<!-- C -->
<g id="node3" class="node">
<title>C</title>
<polygon fill="#ffffff" stroke="#4d4d4d" stroke-width="1.1" points="318.3387,-324 152.3913,-324 152.3913,-288 318.3387,-288 318.3387,-324"/>
<text text-anchor="middle" x="235.365" y="-309" font-family="Helvetica,sans-Serif" font-size="10.00" fill="#000000">Records after duplicates removed</text>
<text text-anchor="middle" x="235.365" y="-297" font-family="Helvetica,sans-Serif" font-size="10.00" fill="#000000">(n = 1012)</text>
</g>
<!-- A&#45;&gt;C -->
<g id="edge1" class="edge">
<title>A&#45;&gt;C</title>
<path fill="none" stroke="#4d4d4d" stroke-width=".8" d="M142.6554,-359.8314C159.3969,-350.1105 180.135,-338.069 197.7495,-327.8412"/>
<polygon fill="#4d4d4d" stroke="#4d4d4d" stroke-width=".8" points="199.2613,-329.7966 204.0846,-324.1628 196.8008,-325.5591 199.2613,-329.7966"/>
</g>
<!-- B -->
<g id="node2" class="node">
<title>B</title>
<polygon fill="#ffffff" stroke="#4d4d4d" stroke-width="1.1" points="479.6991,-396 241.0309,-396 241.0309,-360 479.6991,-360 479.6991,-396"/>
<text text-anchor="middle" x="360.365" y="-381" font-family="Helvetica,sans-Serif" font-size="10.00" fill="#000000">Additional records identified through other sources</text>
<text text-anchor="middle" x="360.365" y="-369" font-family="Helvetica,sans-Serif" font-size="10.00" fill="#000000">(n = 37)</text>
</g>
<!-- B&#45;&gt;C -->
<g id="edge2" class="edge">
<title>B&#45;&gt;C</title>
<path fill="none" stroke="#4d4d4d" stroke-width=".8" d="M328.8222,-359.8314C311.9457,-350.1105 291.0404,-338.069 273.2838,-327.8412"/>
<polygon fill="#4d4d4d" stroke="#4d4d4d" stroke-width=".8" points="274.1863,-325.5337 266.8977,-324.1628 271.7406,-329.7797 274.1863,-325.5337"/>
</g>
<!-- D -->
<g id="node4" class="node">
<title>D</title>
<polygon fill="#ffffff" stroke="#4d4d4d" stroke-width="1.1" points="315.8287,-252 154.9013,-252 154.9013,-216 315.8287,-216 315.8287,-252"/>
<text text-anchor="middle" x="235.365" y="-237" font-family="Helvetica,sans-Serif" font-size="10.00" fill="#000000">Records screened (title/abstract)</text>
<text text-anchor="middle" x="235.365" y="-225" font-family="Helvetica,sans-Serif" font-size="10.00" fill="#000000">(n = 1012)</text>
</g>
<!-- C&#45;&gt;D -->
<g id="edge3" class="edge">
<title>C&#45;&gt;D</title>
<path fill="none" stroke="#4d4d4d" stroke-width=".8" d="M235.365,-287.8314C235.365,-279.2848 235.365,-268.9443 235.365,-259.6198"/>
<polygon fill="#4d4d4d" stroke="#4d4d4d" stroke-width=".8" points="237.8151,-259.4132 235.365,-252.4133 232.9151,-259.4133 237.8151,-259.4132"/>
</g>
<!-- E -->
<g id="node5" class="node">
<title>E</title>
<polygon fill="#ffffff" stroke="#4d4d4d" stroke-width="1.1" points="204.383,-180 108.347,-180 108.347,-144 204.383,-144 204.383,-180"/>
<text text-anchor="middle" x="156.365" y="-165" font-family="Helvetica,sans-Serif" font-size="10.00" fill="#000000">Records excluded</text>
<text text-anchor="middle" x="156.365" y="-153" font-family="Helvetica,sans-Serif" font-size="10.00" fill="#000000">(n = 950)</text>
</g>
<!-- D&#45;&gt;E -->
<g id="edge4" class="edge">
<title>D&#45;&gt;E</title>
<path fill="none" stroke="#4d4d4d" stroke-width=".8" d="M215.43,-215.8314C205.1383,-206.4516 192.4759,-194.9112 181.5181,-184.9244"/>
<polygon fill="#4d4d4d" stroke="#4d4d4d" stroke-width=".8" points="183.1177,-183.0673 176.2937,-180.1628 179.817,-186.6889 183.1177,-183.0673"/>
</g>
<!-- F -->
<g id="node6" class="node">
<title>F</title>
<polygon fill="#ffffff" stroke="#4d4d4d" stroke-width="1.1" points="408.37,-180 222.36,-180 222.36,-144 408.37,-144 408.37,-180"/>
<text text-anchor="middle" x="315.365" y="-165" font-family="Helvetica,sans-Serif" font-size="10.00" fill="#000000">Full&#45;text articles assessed for eligibility</text>
<text text-anchor="middle" x="315.365" y="-153" font-family="Helvetica,sans-Serif" font-size="10.00" fill="#000000">(n = 62)</text>
</g>
<!-- D&#45;&gt;F -->
<g id="edge5" class="edge">
<title>D&#45;&gt;F</title>
<path fill="none" stroke="#4d4d4d" stroke-width=".8" d="M255.5524,-215.8314C265.9744,-206.4516 278.797,-194.9112 289.8935,-184.9244"/>
<polygon fill="#4d4d4d" stroke="#4d4d4d" stroke-width=".8" points="291.62,-186.6667 295.1841,-180.1628 288.342,-183.0245 291.62,-186.6667"/>
</g>
<!-- G -->
<g id="node7" class="node">
<title>G</title>
<polygon fill="#ffffff" stroke="#4d4d4d" stroke-width="1.1" points="305.8316,-108 114.8984,-108 114.8984,-72 305.8316,-72 305.8316,-108"/>
<text text-anchor="middle" x="210.365" y="-93" font-family="Helvetica,sans-Serif" font-size="10.00" fill="#000000">Full&#45;text articles excluded, with reasons</text>
<text text-anchor="middle" x="210.365" y="-81" font-family="Helvetica,sans-Serif" font-size="10.00" fill="#000000">(n = 52)</text>
</g>
<!-- F&#45;&gt;G -->
<g id="edge6" class="edge">
<title>F&#45;&gt;G</title>
<path fill="none" stroke="#4d4d4d" stroke-width=".8" d="M288.8691,-143.8314C274.9415,-134.281 257.7474,-122.4908 243.0042,-112.3812"/>
<polygon fill="#4d4d4d" stroke="#4d4d4d" stroke-width=".8" points="244.0111,-110.101 236.8525,-108.1628 241.24,-114.1422 244.0111,-110.101"/>
</g>
<!-- H -->
<g id="node8" class="node">
<title>H</title>
<polygon fill="#ffffff" stroke="#4d4d4d" stroke-width="1.1" points="515.5211,-108 323.2089,-108 323.2089,-72 515.5211,-72 515.5211,-108"/>
<text text-anchor="middle" x="419.365" y="-93" font-family="Helvetica,sans-Serif" font-size="10.00" fill="#000000">Studies included in qualitative synthesis</text>
<text text-anchor="middle" x="419.365" y="-81" font-family="Helvetica,sans-Serif" font-size="10.00" fill="#000000">(n = 10)</text>
</g>
<!-- F&#45;&gt;H -->
<g id="edge7" class="edge">
<title>F&#45;&gt;H</title>
<path fill="none" stroke="#4d4d4d" stroke-width=".8" d="M341.6086,-143.8314C355.4035,-134.281 372.4338,-122.4908 387.0366,-112.3812"/>
<polygon fill="#4d4d4d" stroke="#4d4d4d" stroke-width=".8" points="388.769,-114.1617 393.1298,-108.1628 385.9799,-110.133 388.769,-114.1617"/>
</g>
<!-- I -->
<g id="node9" class="node">
<title>I</title>
<polygon fill="#ffffff" stroke="#4d4d4d" stroke-width="1.1" points="554.2473,-36 284.4827,-36 284.4827,0 554.2473,0 554.2473,-36"/>
<text text-anchor="middle" x="419.365" y="-21" font-family="Helvetica,sans-Serif" font-size="10.00" fill="#000000">Studies included in quantitative synthesis (meta&#45;analysis)</text>
<text text-anchor="middle" x="419.365" y="-9" font-family="Helvetica,sans-Serif" font-size="10.00" fill="#000000">(n = 10)</text>
</g>
<!-- H&#45;&gt;I -->
<g id="edge8" class="edge">
<title>H&#45;&gt;I</title>
<path fill="none" stroke="#4d4d4d" stroke-width=".8" d="M419.365,-71.8314C419.365,-63.2848 419.365,-52.9443 419.365,-43.6198"/>
<polygon fill="#4d4d4d" stroke="#4d4d4d" stroke-width=".8" points="421.8151,-43.4132 419.365,-36.4133 416.9151,-43.4133 421.8151,-43.4132"/>
</g>
</g>
</svg>

